<?xml version="1.0" encoding="utf-8"?>
<!-- Generator: Adobe Illustrator 16.0.0, SVG Export Plug-In . SVG Version: 6.00 Build 0)  -->
<!DOCTYPE svg PUBLIC "-//W3C//DTD SVG 1.1//EN" "http://www.w3.org/Graphics/SVG/1.1/DTD/svg11.dtd">
<svg version="1.1" id="Outline_Icons" xmlns="http://www.w3.org/2000/svg" xmlns:xlink="http://www.w3.org/1999/xlink" x="0px"
	 y="0px" width="24px" height="24px" viewBox="0 0 24 24" enable-background="new 0 0 24 24" xml:space="preserve">
<g>
	<path d="M1,16.012c0-0.791,0.493-1.498,1.227-1.76l3.941-1.412C6.367,12.769,6.5,12.58,6.5,12.369v-1.371
		c0.443,0.175,0.909,0.292,1.401,0.292c0.565,0,1.101-0.137,1.599-0.364v1.443c0,0.211,0.133,0.399,0.332,0.471l3.941,1.412
		l0.337-0.941l-3.61-1.293v-1.733c1.115-0.953,1.849-2.489,1.849-4.231c0-2.887-1.995-5.236-4.447-5.236S3.454,3.166,3.454,6.053
		c0,1.845,0.818,3.462,2.046,4.395v1.569L1.89,13.31C0.76,13.714,0,14.8,0,16.012V17.5C0,17.776,0.224,18,0.5,18H11v-1H1V16.012z
		 M7.901,1.816c1.656,0,3.042,1.444,3.371,3.361c-1.057,0.184-1.703-0.171-2.343-1.291C8.838,3.728,8.708,3.648,8.485,3.635
		C8.303,3.638,8.136,3.741,8.052,3.903C7.709,4.56,6.503,5.158,5.522,5.158c-0.347,0-0.647-0.07-0.943-0.177
		C4.969,3.166,6.304,1.816,7.901,1.816z M4.454,6.053c0-0.016,0.004-0.03,0.004-0.045c0.336,0.098,0.685,0.15,1.064,0.15
		c1.064,0,2.229-0.487,2.936-1.168c0.634,0.838,1.38,1.237,2.32,1.237c0.177,0,0.37-0.029,0.561-0.057
		C11.287,8.451,9.77,10.29,7.901,10.29C6,10.29,4.454,8.389,4.454,6.053z"/>
	<path d="M14.401,10.29c-0.276,0-0.5,0.224-0.5,0.5s0.224,0.5,0.5,0.5c0.565,0,1.101-0.137,1.599-0.364v0.443
		c0,0.276,0.224,0.5,0.5,0.5s0.5-0.224,0.5-0.5v-1.085c1.115-0.953,1.849-2.489,1.849-4.231c0-0.153-0.027-0.297-0.038-0.447
		c-0.001-0.015,0.005-0.028,0.003-0.043c-0.001-0.01-0.007-0.018-0.009-0.027c-0.225-2.642-2.101-4.719-4.403-4.719
		c-0.276,0-0.5,0.224-0.5,0.5s0.224,0.5,0.5,0.5c1.656,0,3.042,1.444,3.371,3.361c-1.059,0.184-1.703-0.171-2.343-1.291
		c-0.137-0.24-0.443-0.323-0.682-0.186c-0.24,0.137-0.323,0.442-0.186,0.682c0.717,1.254,1.574,1.844,2.717,1.844
		c0.177,0,0.37-0.029,0.561-0.057C17.787,8.451,16.27,10.29,14.401,10.29z"/>
	<path d="M23.97,16.83c-0.072-0.198-0.26-0.33-0.47-0.33h-3.17l-1.363-3.194c-0.079-0.184-0.259-0.303-0.459-0.304c0,0,0,0-0.001,0
		c-0.2,0-0.38,0.119-0.459,0.302L16.671,16.5H13.5c-0.21,0-0.398,0.132-0.47,0.33c-0.072,0.198-0.012,0.419,0.15,0.554l2.727,2.271
		l-1.375,3.669c-0.077,0.206-0.011,0.438,0.164,0.572c0.174,0.133,0.416,0.138,0.595,0.011l3.209-2.29l3.209,2.29
		C21.796,23.969,21.898,24,22,24c0.107,0,0.215-0.035,0.305-0.104c0.174-0.134,0.241-0.366,0.164-0.572l-1.375-3.669l2.727-2.271
		C23.982,17.25,24.042,17.028,23.97,16.83z M20.18,19.114c-0.164,0.136-0.223,0.361-0.148,0.56l0.925,2.468l-2.167-1.546
		c-0.087-0.062-0.189-0.093-0.291-0.093s-0.204,0.031-0.291,0.093l-2.167,1.546l0.925-2.468c0.075-0.199,0.015-0.423-0.148-0.56
		L14.882,17.5H17c0.2,0,0.38-0.119,0.459-0.302l1.046-2.427l1.035,2.426C19.619,17.38,19.8,17.5,20,17.5h2.118L20.18,19.114z"/>
</g>
</svg>
