<?xml version="1.0" encoding="utf-8"?>
<!-- Generator: Adobe Illustrator 16.0.0, SVG Export Plug-In . SVG Version: 6.00 Build 0)  -->
<!DOCTYPE svg PUBLIC "-//W3C//DTD SVG 1.1//EN" "http://www.w3.org/Graphics/SVG/1.1/DTD/svg11.dtd">
<svg version="1.1" id="Outline_Icons" xmlns="http://www.w3.org/2000/svg" xmlns:xlink="http://www.w3.org/1999/xlink" x="0px"
	 y="0px" width="24px" height="24px" viewBox="0 0 24 24" enable-background="new 0 0 24 24" xml:space="preserve">
<g>
	<path d="M23.485,16h-3.19l-1.354-2.73c-0.085-0.17-0.258-0.277-0.447-0.277h-0.001c-0.189,0-0.362,0.106-0.447,0.276L16.677,16
		h-3.191c-0.202,0-0.385,0.122-0.462,0.31c-0.077,0.187-0.034,0.401,0.109,0.545l2.745,2.734l-1.826,3.678
		c-0.1,0.201-0.054,0.443,0.112,0.594c0.166,0.149,0.411,0.17,0.602,0.053l3.721-2.331l3.75,2.333
		c0.081,0.051,0.173,0.075,0.264,0.075c0.122,0,0.242-0.044,0.337-0.131c0.166-0.151,0.21-0.394,0.109-0.594l-1.852-3.679
		l2.743-2.732c0.144-0.144,0.187-0.358,0.109-0.545C23.87,16.122,23.688,16,23.485,16z M20.133,19.134
		c-0.153,0.152-0.191,0.387-0.094,0.579l1.214,2.413l-2.504-1.559c-0.08-0.05-0.172-0.075-0.264-0.075s-0.185,0.025-0.266,0.076
		l-2.484,1.557l1.198-2.414c0.096-0.193,0.057-0.425-0.096-0.577L14.696,17h2.289c0.189,0,0.362-0.106,0.447-0.276l1.058-2.111
		l1.047,2.11C19.622,16.893,19.796,17,19.985,17h2.289L20.133,19.134z"/>
	<path d="M11.569,0.03c-0.056,0.003-0.11,0.005-0.166,0.008c-0.048-0.003-0.103-0.002-0.154,0.01
		C4.955,0.455,0.223,5.29,0.073,11.47c-0.001,0.014-0.002,0.027-0.002,0.041c0,0.007,0,0.013,0,0.02
		c-0.001,0.08-0.002,0.16-0.002,0.24c0,6.311,4.794,11.672,10.919,12.206l0.453,0.035c0.014,0.002,0.026,0.002,0.039,0.002
		c0.182,0,0.35-0.099,0.438-0.259c0.095-0.173,0.079-0.384-0.038-0.541c-1.297-1.729-2.3-3.472-3.033-5.203h3.253
		c0.276,0,0.5-0.224,0.5-0.5s-0.224-0.5-0.5-0.5H8.455c-0.61-1.687-0.968-3.36-1.041-5h16.124c0.27,0,0.491-0.214,0.5-0.484
		l0.015-0.583C23.509,4.545,18.086-0.185,11.569,0.03z M20.62,5.011h-4.434c-0.608-1.345-1.405-2.635-2.393-3.853
		C16.541,1.574,18.943,2.977,20.62,5.011z M11.581,1.031C11.59,1.03,11.599,1.03,11.607,1.03c0.16-0.006,0.329-0.01,0.49-0.01
		c0.095,0,0.187,0.011,0.28,0.013c1.123,1.245,2.023,2.58,2.705,3.978H8.88C9.553,3.624,10.443,2.29,11.581,1.031z M10.14,1.18
		C9.16,2.395,8.386,3.679,7.796,5.011H3.448C5.067,3.025,7.404,1.633,10.14,1.18z M2.723,6.011h4.664c-0.586,1.61-0.9,3.286-0.937,5
		H1.095C1.22,9.166,1.798,7.467,2.723,6.011z M10.425,22.903c-3.117-0.468-5.799-2.318-7.483-4.893H7.79
		C8.438,19.647,9.307,21.285,10.425,22.903z M7.423,17.011H2.354c-0.781-1.508-1.245-3.208-1.282-5h5.389
		C6.528,13.655,6.857,15.33,7.423,17.011z M7.403,11.011c0.039-1.718,0.388-3.392,1.028-5h7.105c0.644,1.598,0.99,3.269,1.045,4.976
		L7.403,11.011z M17.582,10.984C17.53,9.279,17.198,7.612,16.6,6.011h4.758c0.936,1.446,1.541,3.13,1.697,4.959L17.582,10.984z"/>
</g>
</svg>
