<?xml version="1.0" encoding="utf-8"?>
<!-- Generator: Adobe Illustrator 16.0.0, SVG Export Plug-In . SVG Version: 6.00 Build 0)  -->
<!DOCTYPE svg PUBLIC "-//W3C//DTD SVG 1.1//EN" "http://www.w3.org/Graphics/SVG/1.1/DTD/svg11.dtd">
<svg version="1.1" id="Outline_Icons" xmlns="http://www.w3.org/2000/svg" xmlns:xlink="http://www.w3.org/1999/xlink" x="0px"
	 y="0px" width="24px" height="24px" viewBox="0 0 24 24" enable-background="new 0 0 24 24" xml:space="preserve">
<g>
	<path d="M17.5,11c-3.584,0-6.5,2.916-6.5,6.5s2.916,6.5,6.5,6.5s6.5-2.916,6.5-6.5S21.084,11,17.5,11z M17.5,23
		c-3.033,0-5.5-2.468-5.5-5.5s2.467-5.5,5.5-5.5s5.5,2.468,5.5,5.5S20.533,23,17.5,23z"/>
	<path d="M20.403,15.526l-3.464,3.799l-2.358-2.357c-0.195-0.195-0.512-0.195-0.707,0s-0.195,0.512,0,0.707l2.729,2.728
		c0.094,0.094,0.221,0.146,0.354,0.146c0.004,0,0.008,0,0.012,0c0.136-0.003,0.266-0.062,0.358-0.163l3.817-4.186
		c0.186-0.204,0.171-0.521-0.033-0.706C20.905,15.307,20.588,15.32,20.403,15.526z"/>
	<path d="M10,21H2.5C1.673,21,1,20.327,1,19.5V4h3v1H2.5C2.224,5,2,5.224,2,5.5v14C2,19.776,2.224,20,2.5,20h7
		c0.276,0,0.5-0.224,0.5-0.5S9.776,19,9.5,19H3V6h1v0.5C4,6.776,4.224,7,4.5,7h8C12.776,7,13,6.776,13,6.5V6h1v3.5
		c0,0.276,0.224,0.5,0.5,0.5S15,9.776,15,9.5v-4C15,5.224,14.776,5,14.5,5H13V4h3v5.5c0,0.276,0.224,0.5,0.5,0.5S17,9.776,17,9.5v-6
		C17,3.224,16.776,3,16.5,3H13V2.5C13,2.224,12.776,2,12.5,2h-1.545C10.766,0.963,9.98,0,8.5,0S6.234,0.963,6.045,2H4.5
		C4.224,2,4,2.224,4,2.5V3H0.5C0.224,3,0,3.224,0,3.5v16C0,20.879,1.122,22,2.5,22H10c0.276,0,0.5-0.224,0.5-0.5S10.276,21,10,21z
		 M5,3h1.5C6.776,3,7,2.776,7,2.5C7,2.347,7.042,1,8.5,1S10,2.347,10,2.5C10,2.776,10.224,3,10.5,3H12v3H5V3z"/>
	<path d="M10.5,9h-5C5.224,9,5,9.224,5,9.5S5.224,10,5.5,10h5c0.276,0,0.5-0.224,0.5-0.5S10.776,9,10.5,9z"/>
	<path d="M10.5,11h-5C5.224,11,5,11.224,5,11.5S5.224,12,5.5,12h5c0.276,0,0.5-0.224,0.5-0.5S10.776,11,10.5,11z"/>
	<path d="M10.5,13h-5C5.224,13,5,13.224,5,13.5S5.224,14,5.5,14h5c0.276,0,0.5-0.224,0.5-0.5S10.776,13,10.5,13z"/>
	<path d="M8.5,16C8.776,16,9,15.776,9,15.5S8.776,15,8.5,15h-3C5.224,15,5,15.224,5,15.5S5.224,16,5.5,16H8.5z"/>
</g>
</svg>
