<?xml version="1.0" encoding="utf-8"?>
<!-- Generator: Adobe Illustrator 16.0.0, SVG Export Plug-In . SVG Version: 6.00 Build 0)  -->
<!DOCTYPE svg PUBLIC "-//W3C//DTD SVG 1.1//EN" "http://www.w3.org/Graphics/SVG/1.1/DTD/svg11.dtd">
<svg version="1.1" id="Outline_Icons" xmlns="http://www.w3.org/2000/svg" xmlns:xlink="http://www.w3.org/1999/xlink" x="0px"
	 y="0px" width="24px" height="24px" viewBox="0 0 24 24" enable-background="new 0 0 24 24" xml:space="preserve">
<g>
	<path d="M21.5,3h-5V2.5C16.5,2.224,16.276,2,16,2h-1.55C14.217,0.86,13.208,0,12,0S9.783,0.86,9.55,2H8C7.724,2,7.5,2.224,7.5,2.5
		V3h-5C2.224,3,2,3.224,2,3.5v20C2,23.776,2.224,24,2.5,24h19c0.276,0,0.5-0.224,0.5-0.5v-20C22,3.224,21.776,3,21.5,3z M19,16.501
		h-3c-0.276,0-0.5,0.224-0.5,0.5v4L5,21V6h2.5v0.5C7.5,6.776,7.724,7,8,7h8c0.276,0,0.5-0.224,0.5-0.5V6H19V16.501z M18.836,17.501
		L16.5,20.17v-2.669H18.836z M8.5,3H10c0.276,0,0.5-0.224,0.5-0.5C10.5,1.673,11.173,1,12,1s1.5,0.673,1.5,1.5
		C13.5,2.776,13.724,3,14,3h1.5v3h-7V3z M21,23H3V4h4.5v1h-3C4.224,5,4,5.224,4,5.5v16C4,21.776,4.224,22,4.5,22L16,22.001
		c0.072,0,0.14-0.017,0.201-0.044c0.015-0.006,0.026-0.02,0.041-0.027c0.044-0.025,0.087-0.053,0.122-0.09
		c0.004-0.004,0.009-0.006,0.013-0.01l3.5-4C19.956,17.739,20,17.622,20,17.501V5.5C20,5.224,19.776,5,19.5,5h-3V4H21V23z"/>
	<path d="M15.109,9.904l-4.276,5.347l-2.105-2.104c-0.195-0.195-0.512-0.195-0.707,0s-0.195,0.512,0,0.707l2.5,2.5
		c0.094,0.094,0.221,0.146,0.354,0.146c0.009,0,0.019,0,0.028-0.001c0.142-0.008,0.274-0.075,0.363-0.187l4.625-5.783
		c0.172-0.216,0.137-0.53-0.078-0.703C15.597,9.655,15.282,9.69,15.109,9.904z"/>
</g>
</svg>
