<?xml version="1.0" encoding="utf-8"?>
<!-- Generator: Adobe Illustrator 19.1.0, SVG Export Plug-In . SVG Version: 6.00 Build 0)  -->
<svg version="1.1" id="Layer_1" xmlns="http://www.w3.org/2000/svg" xmlns:xlink="http://www.w3.org/1999/xlink" x="0px" y="0px"
	 viewBox="0 0 29.6 29.6" style="enable-background:new 0 0 29.6 29.6;" xml:space="preserve">
<style type="text/css">
	.st0{fill:#FFFFFF;stroke:#AEAEAE;stroke-width:0.2887;}
	.st1{fill:#8B7D4F;stroke:#AEAEAE;stroke-width:0.2887;stroke-miterlimit:10;}
	.st2{fill:none;stroke:#AEAEAE;stroke-width:0.2887;stroke-miterlimit:2;}
	.st3{fill:#001689;}
	.st4{fill:#86754D;}
	.st5{fill:#001689;stroke:#001689;stroke-width:0.513;stroke-linecap:round;stroke-linejoin:round;stroke-miterlimit:10;}
	.st6{fill:#001689;stroke:#001689;stroke-width:0.4043;stroke-linecap:round;stroke-linejoin:round;stroke-miterlimit:10;}
	.st7{fill:#001689;stroke:#001689;stroke-width:1.1995;stroke-linecap:round;stroke-linejoin:round;stroke-miterlimit:10;}
	.st8{fill:#001689;stroke:#001689;stroke-width:0.9453;stroke-linecap:round;stroke-linejoin:round;stroke-miterlimit:10;}
	.st9{fill:#FFFFFF;}
</style>
<circle class="st4" cx="14.8" cy="14.8" r="14.8"/>
<g>
	<g>
		<path class="st9" d="M26.4,10.5c-0.7,0.3-1.4,0.3-2,0c0.9-0.5,0.9-0.9,1.2-1.9c-0.8,0.5-1.7,0.8-2.7,1c-0.8-0.8-1.8-1.3-3-1.3
			c-2.3,0-4.2,1.9-4.2,4.2c0,0.3,0,0.6,0.1,1c-3.5-0.2-6.6-1.8-8.6-4.4c-0.4,0.6-0.6,1.3-0.6,2.1c0,1.4,0.7,2.7,1.9,3.5
			c-0.7,0-1.3-0.2-1.9-0.5c0,0,0,0,0,0.1c0,2,1.4,3.7,3.4,4.1c-0.6,0.2-1.3,0.2-1.9,0.1c0.5,1.7,2.1,2.9,3.9,2.9
			c-1.8,1.4-4,2-6.2,1.7c1.8,1.2,4,1.9,6.4,1.9C19.8,24.9,24,18.6,24,13c0-0.2,0-0.4,0-0.5C24.8,11.9,25.8,11.4,26.4,10.5z"/>
	</g>
</g>
</svg>
